# xmcd
#
# Track frame offsets: 
#        150
#        23202
#        44270
#        59880
#        84032
#        107149
#        123588
#        143023
#        176937
#        193040
#
# Disc length: 2858 seconds
#
# Revision: 0
# Processed by: cddbd v1.5.2PL0 Copyright (c) Steve Scherf et al.
# Submitted via: ExactAudioCopy v0.90b4
#
DISCID=8d0b280a
DTITLE=Polly O'Keary and The Rhythm Method - Who Needs the Blues
DYEAR=2007
DGENRE=Left Coast Blues
TTITLE0=In My Father's House
TTITLE1=Lion's Den
TTITLE2=Bad Idea
TTITLE3=Job Well Done
TTITLE4=Who Needs the Blues?
TTITLE5=Sugar Daddy
TTITLE6=My Time Has Come
TTITLE7=The Loudenst Thing
TTITLE8=Yellow Pages
TTITLE9=Rolling and Tumbling
EXTD=
EXTT0=
EXTT1=
EXTT2=
EXTT3=
EXTT4=
EXTT5=
EXTT6=
EXTT7=
EXTT8=
EXTT9=
PLAYORDER=
